<svg xmlns="http://www.w3.org/2000/svg">
    <!-- Arrow down icon -->
    <symbol id="icon-arrow-down" viewBox="0 0 12 8" fill="none">
        <path stroke="currentColor" stroke-linecap="round" stroke-linejoin="round"
            stroke-width="1.667"
            d="m1 1.5 5 5 5-5" />
    </symbol>

    <!-- Flag icon -->
    <symbol id="icon-flag" viewBox="0 0 24 24" fill="none">
        <path
            stroke="currentColor"
            stroke-linecap="round"
            stroke-linejoin="round"
            stroke-width="2"
            d="M14 7h5.64c.448 0 .671 0 .802.094a.5.5 0 0 1 .205.348c.019.16-.09.356-.307.747l-1.346 2.422c-.08.142-.119.213-.134.288a.5.5 0 0 0 0 .202c.015.075.055.146.134.287l1.346 2.424c.217.39.326.586.307.746a.5.5 0 0 1-.205.348c-.13.094-.354.094-.802.094H12.6c-.56 0-.84 0-1.054-.109a1 1 0 0 1-.437-.437C11 14.24 11 13.96 11 13.4V11M4 21V4m0 7h8.4c.56 0 .84 0 1.054-.109a1 1 0 0 0 .437-.437C14 10.24 14 9.96 14 9.4V4.6c0-.56 0-.84-.109-1.054a1 1 0 0 0-.437-.437C13.24 3 12.96 3 12.4 3H5.6c-.56 0-.84 0-1.054.109a1 1 0 0 0-.437.437C4 3.76 4 4.04 4 4.6z"
        />
    </symbol>

    <!-- Message icon-->
    <symbol id="icon-message" viewBox="0 0 24 24" fill="none">
        <path
            stroke="currentColor"
            stroke-linecap="round"
            stroke-linejoin="round"
            stroke-width="2"
            d="M21 11.5a8.5 8.5 0 0 1-11.555 7.935c-.174-.067-.26-.1-.33-.116a1 1 0 0 0-.186-.025 2 2 0 0 0-.303.021l-5.12.53c-.49.05-.733.075-.877-.013a.5.5 0 0 1-.234-.35c-.026-.166.09-.382.324-.814l1.636-3.027c.134-.25.202-.374.232-.494a.9.9 0 0 0 .028-.326c-.01-.123-.064-.283-.172-.604A8.5 8.5 0 1 1 21 11.5"
        />
    </symbol>

    <!-- Users icon -->
    <symbol id="icon-users" viewBox="0 0 24 24" fill="none">
        <path
            stroke="currentColor"
            stroke-linecap="round"
            stroke-linejoin="round"
            stroke-width="2"
            d="M22 21v-2a4 4 0 0 0-3-3.874M15.5 3.291a4.001 4.001 0 0 1 0 7.418M17 21c0-1.864 0-2.796-.305-3.53a4 4 0 0 0-2.164-2.165C13.796 15 12.864 15 11 15H8c-1.864 0-2.796 0-3.53.305a4 4 0 0 0-2.166 2.164C2 18.204 2 19.136 2 21M13.5 7a4 4 0 1 1-8 0 4 4 0 0 1 8 0"
        />
    </symbol>

    <!-- Folder icon -->
    <symbol id="icon-folder" viewBox="0 0 24 24" fill="none">
        <path
            stroke="currentColor"
            stroke-linecap="round"
            stroke-linejoin="round"
            stroke-width="2"
            d="m13 7-1.116-2.231c-.32-.642-.481-.963-.72-1.198a2 2 0 0 0-.748-.462C10.1 3 9.74 3 9.022 3H5.2c-1.12 0-1.68 0-2.108.218a2 2 0 0 0-.874.874C2 4.52 2 5.08 2 6.2V7m0 0h15.2c1.68 0 2.52 0 3.162.327a3 3 0 0 1 1.311 1.311C22 9.28 22 10.12 22 11.8v4.4c0 1.68 0 2.52-.327 3.162a3 3 0 0 1-1.311 1.311C19.72 21 18.88 21 17.2 21H6.8c-1.68 0-2.52 0-3.162-.327a3 3 0 0 1-1.311-1.311C2 18.72 2 17.88 2 16.2z"
        />
    </symbol>

    <!-- Timer icon -->
    <symbol id="icon-timer" viewBox="0 0 20 20" fill="none">
        <path
            stroke="currentColor"
            stroke-linecap="round"
            stroke-linejoin="round"
            stroke-width="1.667"
            d="M14.788 13.333a5.857 5.857 0 0 0 .911-4.583M5.212 13.333a5.833 5.833 0 0 1 5.819-9.076M13.75 6.25 10 10m8.333 0a8.333 8.333 0 1 1-16.666 0 8.333 8.333 0 0 1 16.666 0m-7.5 0a.833.833 0 1 1-1.666 0 .833.833 0 0 1 1.666 0"
        />

        <defs>
            <clipPath id="a">
                <path
                    fill="currentColor"
                    d="M0 0h20v20H0z"
                />
            </clipPath>
        </defs>
    </symbol>

    <!-- Arrow right icon-->
    <symbol id="icon-arrow-right" viewBox="0 0 20 20" fill="none">
        <path
            stroke="currentColor"
            stroke-linecap="round"
            stroke-linejoin="round"
            stroke-width="1.667"
            d="M3.333 10h13.334m0 0-5-5m5 5-5 5"
        />
    </symbol>

    <!-- Plus icon -->
    <symbol id="icon-plus" viewBox="0 0 22 22" fill="none">
        <path
            stroke="currentColor"
            stroke-linecap="round"
            stroke-linejoin="round"
            stroke-width="2"
            d="M11 7v8m-4-4h8m6 0c0 5.523-4.477 10-10 10S1 16.523 1 11 5.477 1 11 1s10 4.477 10 10"
        />
    </symbol>

    <!-- Minus icon -->
    <symbol id="icon-minus" viewBox="0 0 22 22" fill="none">
        <path
            stroke="#fff"
            stroke-linecap="round"
            stroke-linejoin="round"
            stroke-width="2"
            d="M7 11h8m6 0c0 5.523-4.477 10-10 10S1 16.523 1 11 5.477 1 11 1s10 4.477 10 10"
        />
    </symbol>

    <!-- Arrow up right icon -->
    <symbol id="icon-arrow-up-right" viewBox="0 0 24 24" fill="none">
        <path
            stroke="currentColor"
            stroke-linecap="round"
            stroke-linejoin="round"
            stroke-width="2"
            d="M7 17 17 7m0 0H7m10 0v10"
        />
    </symbol>
</svg>